<svg width="255" height="50" viewBox="0 0 255 50" fill="none" xmlns="http://www.w3.org/2000/svg">
<path d="M96.52 39.64C94.92 39.64 93.4933 39.3333 92.24 38.72C90.9867 38.1067 89.9333 37.28 89.08 36.24C88.2267 35.2 87.5733 34.04 87.12 32.76C86.6933 31.4533 86.48 30.1067 86.48 28.72V28.48C86.48 27.1733 86.6933 25.88 87.12 24.6C87.5467 23.32 88.1733 22.1467 89 21.08C89.8533 20.0133 90.9067 19.16 92.16 18.52C93.4133 17.88 94.8667 17.56 96.52 17.56C98.5733 17.56 100.307 18.04 101.72 19C103.16 19.9333 104.253 21.1467 105 22.64C105.773 24.1333 106.16 25.7333 106.16 27.44L105.36 25.16V9.8H106.64V39H105.6V29.76H106.24C106.24 31.5467 105.84 33.2 105.04 34.72C104.267 36.2133 103.147 37.4133 101.68 38.32C100.24 39.2 98.52 39.64 96.52 39.64ZM96.6 38.44C98.36 38.44 99.9067 38.0533 101.24 37.28C102.573 36.5067 103.6 35.4667 104.32 34.16C105.067 32.8267 105.44 31.3333 105.44 29.68V27.52C105.44 25.9733 105.08 24.5333 104.36 23.2C103.64 21.8667 102.613 20.8 101.28 20C99.9733 19.1733 98.4133 18.76 96.6 18.76C94.68 18.76 93.0667 19.24 91.76 20.2C90.4533 21.1333 89.4533 22.36 88.76 23.88C88.0933 25.3733 87.76 26.9467 87.76 28.6C87.76 30.36 88.1067 31.9867 88.8 33.48C89.4933 34.9733 90.4933 36.1733 91.8 37.08C93.1333 37.9867 94.7333 38.44 96.6 38.44ZM115.273 39V9.8H116.553V24.48L115.873 26.52C115.873 24.8133 116.166 23.2933 116.753 21.96C117.366 20.6267 118.26 19.5733 119.433 18.8C120.633 18.0267 122.113 17.64 123.873 17.64H123.953C126.566 17.64 128.54 18.4533 129.873 20.08C131.233 21.7067 131.913 23.8533 131.913 26.52V39H130.633V26.2C130.633 24.0133 130.046 22.24 128.873 20.88C127.726 19.52 126.046 18.84 123.833 18.84C121.593 18.84 119.82 19.5333 118.513 20.92C117.206 22.28 116.553 24.0667 116.553 26.28V39H115.273ZM141.512 39V18.2H142.792V39H141.512ZM137.912 19.4V18.2H142.792V19.4H137.912ZM141.272 13.32C140.846 13.32 140.512 13.2 140.272 12.96C140.032 12.72 139.912 12.4 139.912 12C139.912 11.6267 140.032 11.32 140.272 11.08C140.512 10.8133 140.859 10.68 141.312 10.68C141.739 10.68 142.059 10.8133 142.272 11.08C142.512 11.32 142.632 11.6267 142.632 12C142.632 12.4 142.512 12.72 142.272 12.96C142.059 13.2 141.726 13.32 141.272 13.32ZM156.523 39L148.723 18.2H150.043L157.803 39H156.523ZM157.003 39V37.8H159.083V39H157.003ZM158.243 39L165.203 18.2H166.483L159.483 39H158.243ZM185.222 39V32.76H184.982V24.92C184.982 23.1333 184.502 21.7333 183.542 20.72C182.608 19.7067 180.995 19.2 178.702 19.2C178.008 19.2 177.315 19.2267 176.622 19.28C175.955 19.3067 175.315 19.3467 174.702 19.4C174.115 19.4533 173.568 19.52 173.062 19.6V18.4C173.595 18.32 174.142 18.2533 174.702 18.2C175.262 18.12 175.822 18.0667 176.382 18.04C176.968 18.0133 177.528 18 178.062 18C180.142 18 181.768 18.28 182.942 18.84C184.142 19.4 184.995 20.2133 185.502 21.28C186.008 22.3467 186.262 23.6667 186.262 25.24V39H185.222ZM177.742 39.56C176.435 39.56 175.222 39.32 174.102 38.84C173.008 38.3333 172.128 37.6 171.462 36.64C170.822 35.68 170.502 34.5067 170.502 33.12C170.502 31.8667 170.795 30.7733 171.382 29.84C171.995 28.9067 172.862 28.1867 173.982 27.68C175.102 27.1733 176.462 26.92 178.062 26.92H185.062V28.04H177.822C175.875 28.04 174.382 28.5067 173.342 29.44C172.302 30.3733 171.782 31.6133 171.782 33.16C171.782 34.8133 172.355 36.1067 173.502 37.04C174.648 37.9733 176.088 38.44 177.822 38.44C178.942 38.44 180.035 38.2267 181.102 37.8C182.168 37.3733 183.062 36.6533 183.782 35.64C184.528 34.6 184.928 33.2133 184.982 31.48L185.622 32.12C185.568 33.8 185.168 35.2 184.422 36.32C183.675 37.4133 182.715 38.2267 181.542 38.76C180.395 39.2933 179.128 39.56 177.742 39.56ZM208.368 39L198.928 29.16H195.648L206.128 18.2H207.688L198.448 27.84L198.408 26.92L210.008 39H208.368ZM194.648 39V9.8H195.928V39H194.648ZM227.526 39V32.76H227.286V24.92C227.286 23.1333 226.806 21.7333 225.846 20.72C224.913 19.7067 223.3 19.2 221.006 19.2C220.313 19.2 219.62 19.2267 218.926 19.28C218.26 19.3067 217.62 19.3467 217.006 19.4C216.42 19.4533 215.873 19.52 215.366 19.6V18.4C215.9 18.32 216.446 18.2533 217.006 18.2C217.566 18.12 218.126 18.0667 218.686 18.04C219.273 18.0133 219.833 18 220.366 18C222.446 18 224.073 18.28 225.246 18.84C226.446 19.4 227.3 20.2133 227.806 21.28C228.313 22.3467 228.566 23.6667 228.566 25.24V39H227.526ZM220.046 39.56C218.74 39.56 217.526 39.32 216.406 38.84C215.313 38.3333 214.433 37.6 213.766 36.64C213.126 35.68 212.806 34.5067 212.806 33.12C212.806 31.8667 213.1 30.7733 213.686 29.84C214.3 28.9067 215.166 28.1867 216.286 27.68C217.406 27.1733 218.766 26.92 220.366 26.92H227.366V28.04H220.126C218.18 28.04 216.686 28.5067 215.646 29.44C214.606 30.3733 214.086 31.6133 214.086 33.16C214.086 34.8133 214.66 36.1067 215.806 37.04C216.953 37.9733 218.393 38.44 220.126 38.44C221.246 38.44 222.34 38.2267 223.406 37.8C224.473 37.3733 225.366 36.6533 226.086 35.64C226.833 34.6 227.233 33.2133 227.286 31.48L227.926 32.12C227.873 33.8 227.473 35.2 226.726 36.32C225.98 37.4133 225.02 38.2267 223.846 38.76C222.7 39.2933 221.433 39.56 220.046 39.56ZM236.953 39V18.2H237.993V27.12H237.593C237.593 24.1067 238.259 21.84 239.593 20.32C240.953 18.8 243.233 18.04 246.433 18.04H247.113V19.24H246.113C243.473 19.24 241.499 19.9067 240.193 21.24C238.886 22.5467 238.233 24.5067 238.233 27.12V39H236.953Z" fill="white"/>
<path d="M2.92 39V17.08H8V26.48H7.88C7.88 23.3867 8.53333 21 9.84 19.32C11.1733 17.64 13.0933 16.8 15.6 16.8H16.44V22.32H14.84C13.08 22.32 11.72 22.8 10.76 23.76C9.8 24.6933 9.32 26.0533 9.32 27.84V39H2.92ZM32.8397 39V32.52H31.7597V25.48C31.7597 24.36 31.493 23.52 30.9597 22.96C30.4264 22.4 29.573 22.12 28.3997 22.12C27.813 22.12 27.0397 22.1333 26.0797 22.16C25.1197 22.1867 24.133 22.2267 23.1197 22.28C22.1064 22.3333 21.1864 22.3867 20.3597 22.44V17.04C20.973 16.9867 21.693 16.9333 22.5197 16.88C23.3464 16.8267 24.1997 16.7867 25.0797 16.76C25.9597 16.7333 26.7864 16.72 27.5597 16.72C29.7997 16.72 31.6797 17.04 33.1997 17.68C34.7464 18.32 35.9197 19.2933 36.7197 20.6C37.5197 21.88 37.9197 23.5333 37.9197 25.56V39H32.8397ZM25.8397 39.56C24.2664 39.56 22.8797 39.28 21.6797 38.72C20.5064 38.16 19.5864 37.36 18.9197 36.32C18.253 35.2533 17.9197 33.9867 17.9197 32.52C17.9197 30.92 18.333 29.6133 19.1597 28.6C19.9864 27.56 21.1464 26.8 22.6397 26.32C24.133 25.8133 25.853 25.56 27.7997 25.56H32.4797V29.12H27.7597C26.6397 29.12 25.773 29.4 25.1597 29.96C24.573 30.4933 24.2797 31.2267 24.2797 32.16C24.2797 33.04 24.573 33.76 25.1597 34.32C25.773 34.8533 26.6397 35.12 27.7597 35.12C28.4797 35.12 29.1197 35 29.6797 34.76C30.2664 34.4933 30.7464 34.0533 31.1197 33.44C31.493 32.8267 31.7064 31.9733 31.7597 30.88L33.2797 32.48C33.1464 34 32.773 35.28 32.1597 36.32C31.573 37.36 30.7464 38.16 29.6797 38.72C28.6397 39.28 27.3597 39.56 25.8397 39.56ZM43.3497 39V17.08H48.4297V26.52H48.0697C48.0697 24.28 48.3497 22.4133 48.9097 20.92C49.4697 19.4267 50.3097 18.3067 51.4297 17.56C52.5497 16.7867 53.923 16.4 55.5497 16.4H55.8297C57.483 16.4 58.8564 16.7867 59.9497 17.56C61.0697 18.3067 61.9097 19.4267 62.4697 20.92C63.0564 22.4133 63.3497 24.28 63.3497 26.52H61.7897C61.7897 24.28 62.0697 22.4133 62.6297 20.92C63.2164 19.4267 64.0697 18.3067 65.1897 17.56C66.3097 16.7867 67.683 16.4 69.3097 16.4H69.5897C71.243 16.4 72.6297 16.7867 73.7497 17.56C74.8964 18.3067 75.763 19.4267 76.3497 20.92C76.9364 22.4133 77.2297 24.28 77.2297 26.52V39H70.8297V26.16C70.8297 24.96 70.5097 23.9867 69.8697 23.24C69.2564 22.4933 68.3764 22.12 67.2297 22.12C66.083 22.12 65.1764 22.5067 64.5097 23.28C63.843 24.0267 63.5097 25.0267 63.5097 26.28V39H57.0697V26.16C57.0697 24.96 56.7497 23.9867 56.1097 23.24C55.4964 22.4933 54.6297 22.12 53.5097 22.12C52.3364 22.12 51.4164 22.5067 50.7497 23.28C50.083 24.0267 49.7497 25.0267 49.7497 26.28V39H43.3497Z" fill="white"/>
<rect x="250" y="36" width="5" height="5" fill="#F31C1C"/>
</svg>
